<svg width="422" height="382" viewBox="0 0 422 382" fill="none" xmlns="http://www.w3.org/2000/svg">
<path fill-rule="evenodd" clip-rule="evenodd" d="M168.105 24.7247C186.906 -8.24158 234.432 -8.24157 253.233 24.7247L414.83 308.068C433.46 340.734 409.871 381.343 372.265 381.343H49.0723C11.4671 381.343 -12.122 340.734 6.50808 308.068L168.105 24.7247ZM186.842 86.778C197.584 67.93 224.754 67.93 235.496 86.778L353.154 293.229C363.792 311.895 350.312 335.093 328.827 335.093H93.5104C72.0256 335.093 58.5456 311.895 69.1837 293.229L186.842 86.778ZM222.834 184.447C217.463 175.02 203.874 175.02 198.504 184.447L158.506 254.663C153.189 263.996 159.929 275.593 170.67 275.593H250.667C261.409 275.593 268.149 263.996 262.832 254.663L222.834 184.447Z" fill="white"/>
</svg>
